<svg width="224" height="216" viewBox="0 0 224 216" fill="none" xmlns="http://www.w3.org/2000/svg">
<g opacity="0.9" clip-path="url(#clip0_4425_24006)">
<path fill-rule="evenodd" clip-rule="evenodd" d="M72.3749 19.1467L71.2753 10.0471L66.007 1.33031L65.4537 0.414551L66.3554 0.988426L80.5898 10.0471L82.7653 16.7957L82.9186 17.2715H82.4198H75.9323L72.8808 19.3754L72.4395 19.6796L72.3749 19.1467ZM61.7662 39.6881L58.4637 31.7192L67.3036 22.5775L67.7782 22.0867V22.7702V35.3315L62.3391 39.8308L61.9565 40.1477L61.7662 39.6881ZM73.4251 26.7695L79.2468 23.1573H92.0542L111.848 26.7695L131.642 23.1573H144.449L150.271 26.7695V40.0145L163.078 52.0548L156.093 68.9118L159.586 95.4013L150.271 105.034L138.628 108.645L136.299 119.482L138.628 131.523L136.299 141.156L131.642 150.788L124.656 154.401H111.848H99.0404L92.0542 150.788L87.3972 141.156L85.0684 131.523L87.3972 119.482L85.0684 108.645L73.4251 105.034L64.1102 95.4013L67.6035 68.9118L60.6173 52.0548L73.4251 40.0145V26.7695ZM170.377 88.6606L164.044 90.8092L163.586 90.9648L163.524 90.4833L163.091 87.1087L162.131 80.9474L167.783 67.6301L176.088 53.052L188.811 43.3539L200.599 42.4057L210.15 50.1636L216.832 65.9297L220.358 78.2103L217.991 90.9648L210.662 95.4427L194.369 94.21L186.167 85.1475L183.562 77.3886L183.185 76.2635L183.981 77.1427L190.756 84.6289L202.459 86.3802L211.223 77.8977L211.654 64.4015L200.167 55.9019L185.638 60.8095L176.702 74.6906L170.377 88.6606ZM78.2644 129.246L68.9494 132.858L51.4845 125.634L31.6909 120.817L14.2259 129.246L10.7329 147.307L22.3763 159.347H37.5125L46.827 147.307V134.06V132.858L47.3016 133.962L51.4845 143.695V159.347L37.5125 175.001L27.0336 177.409L14.2259 167.777L7.23989 153.327L0.253906 132.858L2.58256 117.205L14.2259 107.573L34.0196 105.165L53.8133 111.185L70.114 118.409L80.1584 113.792L80.5932 113.593L80.7398 114.049L81.7573 117.205L78.2644 129.246ZM145.633 129.246L154.948 132.858L172.413 125.634L192.206 120.817L209.671 129.246L213.165 147.307L201.521 159.347H186.385L177.07 147.307V134.06V132.858L176.596 133.962L172.413 143.695V159.347L186.385 175.001L196.863 177.409L209.671 167.777L216.658 153.327L223.643 132.858L221.315 117.205L209.671 107.573L189.878 105.165L170.085 111.185L153.784 118.409L143.739 113.792L143.305 113.593L143.158 114.049L142.14 117.205L145.633 129.246ZM58.0617 90.8092L51.7294 88.6606L45.4033 74.6906L36.4671 60.8095L21.9383 55.9019L10.4515 64.4015L10.8831 77.8977L19.6468 86.3802L31.3493 84.6289L38.1252 77.1427L38.9211 76.2635L38.5433 77.3886L35.9387 85.1475L27.7363 94.21L11.4443 95.4427L4.11515 90.9648L1.74754 78.2103L5.27425 65.9297L11.9559 50.1636L21.5067 42.4057L33.2956 43.3539L46.0179 53.052L54.323 67.6301L59.9752 80.9474L59.0151 87.1087L58.5823 90.4833L58.5206 90.9648L58.0617 90.8092ZM78.3963 166.138L89.7055 156.937L90.1189 156.6L89.6319 156.383L87.5694 155.467L83.1193 146.264L82.9124 145.835L82.4929 146.059L78.3963 148.243L67.7758 155.467L57.8771 170.426L54.9679 184.366L57.2967 196.407L65.4475 207.242L82.9124 215.671L95.2462 212.059L103.085 204.034L105.641 195.636L103.87 178.04L101.541 172.311L95.8399 169.052L95.2462 168.712L95.4384 169.37L98.0481 178.287V191.59L89.2442 200.179H78.3963L69.7239 191.59L67.3492 178.287L78.3963 166.138ZM135.251 156.937L146.56 166.138L157.607 178.287L155.232 191.59L146.56 200.179H135.712L126.908 191.59V178.287L129.518 169.37L129.71 168.712L129.116 169.052L123.415 172.311L121.086 178.04L119.315 195.636L121.871 204.034L129.71 212.059L142.043 215.671L159.509 207.242L167.659 196.407L169.988 184.366L167.079 170.426L157.18 155.467L146.56 148.243L142.463 146.059L142.043 145.835L141.836 146.264L137.386 155.467L135.324 156.383L134.837 156.6L135.251 156.937ZM165.426 31.7192L162.123 39.6881L161.933 40.1477L161.551 39.8308L156.112 35.3315V22.7702V22.0867L156.587 22.5775L165.426 31.7192ZM149.283 10.0471L148.184 19.1467L148.12 19.6796L147.678 19.3755L144.626 17.2715H138.139H137.641L137.794 16.7957L139.969 10.0471L154.203 0.988378L155.105 0.414551L154.552 1.33031L149.283 10.0471Z" fill="white"/>
</g>
<defs>
<clipPath id="clip0_4425_24006">
<rect width="224" height="216" fill="white"/>
</clipPath>
</defs>
</svg>
